<?xml version="1.0" encoding="UTF-8"?>
<svg version="1.1" xmlns="http://www.w3.org/2000/svg" width="148" height="146">
<path d="M0 0 C1.94996827 -0.00456939 3.89993493 -0.0098772 5.84989929 -0.0158844 C9.9256344 -0.02478804 14.00117329 -0.02242462 18.0769043 -0.01245117 C23.26807847 -0.0009784 28.45857067 -0.02116133 33.64965534 -0.05036831 C37.67431352 -0.06882669 41.69881126 -0.06841852 45.72350121 -0.06273079 C47.63582502 -0.06257868 49.54816048 -0.06853046 51.4604435 -0.08102226 C65.18193789 -0.15802887 78.18456668 0.06896257 89.14453125 9.5234375 C99.9350482 20.56227179 99.47574222 34.54850846 99.4453125 48.984375 C99.44988223 50.88950281 99.45519014 52.79462898 99.4611969 54.69975281 C99.47009926 58.6813326 99.46773864 62.66271152 99.45776367 66.64428711 C99.44629145 71.71439913 99.46647357 76.78381282 99.49568081 81.8538332 C99.51414332 85.78584608 99.51373021 89.71769481 99.50804329 93.64974022 C99.50789123 95.51740687 99.51383894 97.38508549 99.52633476 99.25271034 C99.60448633 112.84859509 99.28367103 125.71387836 89.921875 136.56640625 C78.77224528 147.4652263 64.5938349 146.89717656 50.0234375 146.8671875 C48.07346923 146.87175689 46.12350257 146.8770647 44.17353821 146.8830719 C40.0978031 146.89197554 36.02226421 146.88961212 31.9465332 146.87963867 C26.75535903 146.8681659 21.56486683 146.88834883 16.37378216 146.91755581 C12.34912398 146.93601419 8.32462624 146.93560602 4.29993629 146.92991829 C2.38761248 146.92976618 0.47527702 146.93571796 -1.437006 146.94820976 C-15.15850039 147.02521637 -28.16112918 146.79822493 -39.12109375 137.34375 C-49.9116107 126.30491571 -49.45230472 112.31867904 -49.421875 97.8828125 C-49.42644473 95.97768469 -49.43175264 94.07255852 -49.4377594 92.16743469 C-49.44666176 88.1858549 -49.44430114 84.20447598 -49.43432617 80.22290039 C-49.42285395 75.15278837 -49.44303607 70.08337468 -49.47224331 65.0133543 C-49.49070582 61.08134142 -49.49029271 57.14949269 -49.48460579 53.21744728 C-49.48445373 51.34978063 -49.49040144 49.48210201 -49.50289726 47.61447716 C-49.58104883 34.01859241 -49.26023353 21.15330914 -39.8984375 10.30078125 C-28.74880778 -0.5980388 -14.5703974 -0.02998906 0 0 Z " fill="#F9FAFB" transform="translate(48.98828125,-0.43359375)"/>
<path d="M0 0 C1.43723419 -0.01051392 1.43723419 -0.01051392 2.90350342 -0.02124023 C6.07211251 -0.0388511 9.23982901 -0.02718527 12.40844727 -0.01367188 C14.61035839 -0.01636611 16.81226836 -0.02024796 19.01417542 -0.02526855 C23.63017091 -0.03116799 28.24585688 -0.02258687 32.86181641 -0.00390625 C38.77811325 0.01886986 44.69368376 0.00577107 50.60995388 -0.01819611 C55.15759244 -0.03265327 59.70505896 -0.02804816 64.25270271 -0.01768494 C66.43399199 -0.01501675 68.61529689 -0.01829063 70.79656792 -0.02760315 C73.84656993 -0.03776558 76.89539789 -0.02227056 79.9453125 0 C81.29750633 -0.01214539 81.29750633 -0.01214539 82.67701721 -0.02453613 C86.7970932 0.03117889 89.00293169 0.19367924 92.59642029 2.37159729 C95.16124487 5.20737975 95.18159376 6.84837424 95.20141602 10.63867188 C95.20786133 11.82138672 95.21430664 13.00410156 95.22094727 14.22265625 C95.19194336 16.07020508 95.19194336 16.07020508 95.16235352 17.95507812 C95.18168945 19.18291016 95.20102539 20.41074219 95.22094727 21.67578125 C95.21450195 22.85978516 95.20805664 24.04378906 95.20141602 25.26367188 C95.19577637 26.34318115 95.19013672 27.42269043 95.18432617 28.53491211 C94.28955881 32.65995846 92.87875467 33.94629644 89.53735352 36.51757812 C86.33980269 37.24858641 83.21434456 37.20125378 79.9453125 37.16455078 C78.98540405 37.17331238 78.02549561 37.18207397 77.03649902 37.19110107 C73.8683533 37.21308089 70.70160679 37.19854794 67.53344727 37.18164062 C65.33056877 37.18500887 63.12769208 37.18986156 60.92481995 37.19613647 C56.31053962 37.20350568 51.69674354 37.19279923 47.08251953 37.16943359 C41.16489141 37.14092962 35.24839625 37.15736059 29.33080959 37.18729591 C24.7831822 37.20535297 20.235824 37.19961834 15.68818855 37.18665695 C13.50607227 37.18331943 11.32393162 37.18742212 9.1418438 37.19905472 C6.0939026 37.2117386 3.04780376 37.19242059 0 37.16455078 C-0.90348679 37.17467194 -1.80697357 37.18479309 -2.73783875 37.19522095 C-8.83846211 37.09174915 -8.83846211 37.09174915 -12.02171326 34.16355896 C-13.75480161 30.98109466 -13.97878936 28.87832063 -13.99389648 25.26367188 C-13.99905273 24.07966797 -14.00420898 22.89566406 -14.00952148 21.67578125 C-13.99405273 20.44794922 -13.97858398 19.22011719 -13.96264648 17.95507812 C-13.97811523 16.72337891 -13.99358398 15.49167969 -14.00952148 14.22265625 C-14.00436523 13.03994141 -13.99920898 11.85722656 -13.99389648 10.63867188 C-13.98938477 9.56029053 -13.98487305 8.48190918 -13.98022461 7.37084961 C-12.55919838 -0.46289261 -6.58846292 -0.0590449 0 0 Z " fill="#3D8BFF" transform="translate(33.462646484375,62.482421875)"/>
<path d="M0 0 C1.08792847 -0.01260864 2.17585693 -0.02521729 3.29675293 -0.03820801 C5.05154968 -0.02606262 5.05154968 -0.02606262 6.84179688 -0.01367188 C8.65025085 -0.01941223 8.65025085 -0.01941223 10.49523926 -0.02526855 C13.04387243 -0.02799013 15.59253341 -0.02061193 18.14111328 -0.00390625 C22.0458799 0.01749773 25.94880635 -0.00370191 29.85351562 -0.02929688 C32.32878011 -0.02665365 34.80404345 -0.02152877 37.27929688 -0.01367188 C38.44916138 -0.0217688 39.61902588 -0.02986572 40.82434082 -0.03820801 C41.91226929 -0.02559937 43.00019775 -0.01299072 44.12109375 0 C45.55527649 0.00477356 45.55527649 0.00477356 47.01843262 0.00964355 C50.31256697 0.6678377 51.50820692 1.90700289 53.56054688 4.51757812 C54.078125 7.47851562 54.078125 7.47851562 54.09179688 10.89257812 C54.09953125 12.74109375 54.09953125 12.74109375 54.10742188 14.62695312 C54.09195313 15.91085938 54.07648438 17.19476563 54.06054688 18.51757812 C54.07601562 19.80148438 54.09148437 21.08539063 54.10742188 22.40820312 C54.10226563 23.64054687 54.09710938 24.87289062 54.09179688 26.14257812 C54.08728516 27.26921875 54.08277344 28.39585938 54.078125 29.55664062 C53.43572477 33.2316548 52.44307792 34.21005896 49.56054688 36.51757812 C47.01843262 37.0255127 47.01843262 37.0255127 44.12109375 37.03515625 C43.03316528 37.04776489 41.94523682 37.06037354 40.82434082 37.07336426 C39.65447632 37.06526733 38.48461182 37.05717041 37.27929688 37.04882812 C35.4708429 37.05456848 35.4708429 37.05456848 33.62585449 37.0604248 C31.07722132 37.06314638 28.52856034 37.05576818 25.97998047 37.0390625 C22.07521385 37.01765852 18.1722874 37.03885816 14.26757812 37.06445312 C11.79231364 37.0618099 9.3170503 37.05668502 6.84179688 37.04882812 C5.08700012 37.06097351 5.08700012 37.06097351 3.29675293 37.07336426 C2.20882446 37.06075562 1.120896 37.04814697 0 37.03515625 C-1.43418274 37.03038269 -1.43418274 37.03038269 -2.89733887 37.0255127 C-6.19147322 36.36731855 -7.38711317 35.12815336 -9.43945312 32.51757812 C-9.95703125 29.55664062 -9.95703125 29.55664062 -9.97070312 26.14257812 C-9.97585937 24.91023438 -9.98101562 23.67789063 -9.98632812 22.40820312 C-9.97085938 21.12429687 -9.95539063 19.84039062 -9.93945312 18.51757812 C-9.95492187 17.23367187 -9.97039062 15.94976562 -9.98632812 14.62695312 C-9.98117188 13.39460938 -9.97601563 12.16226562 -9.97070312 10.89257812 C-9.96619141 9.7659375 -9.96167969 8.63929687 -9.95703125 7.47851562 C-8.94791092 1.70558572 -5.54526876 0.01845697 0 0 Z " fill="#111111" transform="translate(74.439453125,17.482421875)"/>
<path d="M0 0 C1.18271484 -0.00515625 2.36542969 -0.0103125 3.58398438 -0.015625 C5.4315332 0.00757812 5.4315332 0.00757812 7.31640625 0.03125 C8.54423828 0.01578125 9.77207031 0.0003125 11.03710938 -0.015625 C12.22111328 -0.01046875 13.40511719 -0.0053125 14.625 0 C15.70450928 0.00451172 16.78401855 0.00902344 17.89624023 0.01367188 C21.66321128 0.66734942 23.30233994 1.71659481 25.87890625 4.53125 C26.52587891 7.38452148 26.52587891 7.38452148 26.54296875 10.65234375 C26.55263672 12.42641602 26.55263672 12.42641602 26.5625 14.23632812 C26.54316406 15.46802734 26.52382813 16.69972656 26.50390625 17.96875 C26.52324219 19.19658203 26.54257812 20.42441406 26.5625 21.68945312 C26.53559894 26.63117701 26.45486424 30.40460701 24.1875 34.83984375 C18.74878622 37.62020156 13.32834514 37.2509262 7.31640625 37.15625 C5.46885742 37.18525391 5.46885742 37.18525391 3.58398438 37.21484375 C1.80991211 37.20517578 1.80991211 37.20517578 0 37.1953125 C-1.07838135 37.18967285 -2.1567627 37.1840332 -3.26782227 37.17822266 C-6.12109375 36.53125 -6.12109375 36.53125 -8.47045898 34.38061523 C-10.3915254 31.06442441 -10.63641138 29.08944842 -10.65234375 25.27734375 C-10.6575 24.09333984 -10.66265625 22.90933594 -10.66796875 21.68945312 C-10.6525 20.46162109 -10.63703125 19.23378906 -10.62109375 17.96875 C-10.6365625 16.73705078 -10.65203125 15.50535156 -10.66796875 14.23632812 C-10.6628125 13.05361328 -10.65765625 11.87089844 -10.65234375 10.65234375 C-10.64783203 9.5739624 -10.64332031 8.49558105 -10.63867188 7.38452148 C-9.51028381 1.16401615 -5.83858109 0.02442738 0 0 Z " fill="#3D8BFF" transform="translate(30.12109375,17.46875)"/>
<path d="M0 0 C1.49164673 -0.00945648 1.49164673 -0.00945648 3.01342773 -0.019104 C4.09052002 -0.01505554 5.1676123 -0.01100708 6.27734375 -0.00683594 C7.37957275 -0.00874939 8.48180176 -0.01066284 9.61743164 -0.01263428 C11.95101143 -0.01399706 14.28459878 -0.01029416 16.61816406 -0.00195312 C20.20004222 0.00874485 23.78141878 -0.00184552 27.36328125 -0.01464844 C29.6263032 -0.01332686 31.88932483 -0.0107645 34.15234375 -0.00683594 C35.76798218 -0.01290863 35.76798218 -0.01290863 37.41625977 -0.019104 C38.41069092 -0.01279968 39.40512207 -0.00649536 40.4296875 0 C41.3074585 0.00159119 42.18522949 0.00318237 43.08959961 0.00482178 C45.21484375 0.25878906 45.21484375 0.25878906 47.21484375 2.25878906 C47.48046875 5.44628906 47.48046875 5.44628906 47.46484375 9.25878906 C47.47257812 11.14597656 47.47257812 11.14597656 47.48046875 13.07128906 C47.21484375 16.25878906 47.21484375 16.25878906 45.21484375 18.25878906 C43.08959961 18.51275635 43.08959961 18.51275635 40.4296875 18.51757812 C39.43525635 18.52388245 38.4408252 18.53018677 37.41625977 18.53668213 C36.33916748 18.53263367 35.2620752 18.52858521 34.15234375 18.52441406 C33.05011475 18.52632751 31.94788574 18.52824097 30.81225586 18.5302124 C28.47867607 18.53157519 26.14508872 18.52787229 23.81152344 18.51953125 C20.22964528 18.50883327 16.64826872 18.51942364 13.06640625 18.53222656 C10.8033843 18.53090498 8.54036267 18.52834263 6.27734375 18.52441406 C5.20025146 18.52846252 4.12315918 18.53251099 3.01342773 18.53668213 C2.01899658 18.53037781 1.02456543 18.52407349 0 18.51757812 C-0.877771 18.51598694 -1.75554199 18.51439575 -2.65991211 18.51275635 C-4.78515625 18.25878906 -4.78515625 18.25878906 -6.78515625 16.25878906 C-7.05078125 13.07128906 -7.05078125 13.07128906 -7.03515625 9.25878906 C-7.0403125 8.00066406 -7.04546875 6.74253906 -7.05078125 5.44628906 C-6.6204927 0.28282648 -4.67371477 0.00847231 0 0 Z " fill="#3E8BFE" transform="translate(80.78515625,107.7412109375)"/>
<path d="M0 0 C0.88022827 0.00404846 1.76045654 0.00809692 2.6673584 0.01226807 C4.0210553 0.00939789 4.0210553 0.00939789 5.40209961 0.00646973 C7.31197386 0.00510748 9.22185736 0.00880669 11.13171387 0.01715088 C14.0617749 0.02784986 16.99122278 0.01725696 19.92126465 0.00445557 C21.77413059 0.00577715 23.62699615 0.00833953 25.4798584 0.01226807 C26.80020081 0.00619537 26.80020081 0.00619537 28.1472168 0 C34.3436918 0.04797647 34.3436918 0.04797647 36.5736084 2.27789307 C36.8392334 5.46539307 36.8392334 5.46539307 36.8236084 9.27789307 C36.83134277 11.16508057 36.83134277 11.16508057 36.8392334 13.09039307 C36.5736084 16.27789307 36.5736084 16.27789307 34.5736084 18.27789307 C31.51182067 18.47803459 28.54241547 18.55760378 25.4798584 18.54351807 C24.1261615 18.54638824 24.1261615 18.54638824 22.74511719 18.54931641 C20.83524294 18.55067866 18.92535944 18.54697944 17.01550293 18.53863525 C14.0854419 18.52793628 11.15599402 18.53852917 8.22595215 18.55133057 C6.37308621 18.55000898 4.52022065 18.5474466 2.6673584 18.54351807 C1.34701599 18.54959076 1.34701599 18.54959076 0 18.55578613 C-6.196475 18.50780967 -6.196475 18.50780967 -8.4263916 16.27789307 C-8.6920166 13.09039307 -8.6920166 13.09039307 -8.6763916 9.27789307 C-8.68154785 8.01976807 -8.6867041 6.76164307 -8.6920166 5.46539307 C-8.19776827 -0.46558693 -5.24599925 0.04061737 0 0 Z " fill="#121212" transform="translate(28.4263916015625,107.72210693359375)"/>
</svg>
